SRRun01_grf
version=1
nRows=21
nColumns=19
inDegrees=no
endheader
time	ground_force_r_vx	ground_force_r_vy	ground_force_r_vz	ground_force_r_px	ground_force_r_py	ground_force_r_pz	ground_force_r_mx	ground_force_r_my	ground_force_r_mz	ground_force_l_vx	ground_force_l_vy	ground_force_l_vz	ground_force_l_px	ground_force_l_py	ground_force_l_pz	ground_force_l_mx	ground_force_l_my	ground_force_l_mz
    147.49900000	     -1.03736931	   1182.22855314	    -62.35695396	      0.85632573	      0.00000000	     -0.56045940	      0.00003992	      4.63567046	      0.00003204	      0.00000000	      0.00000000	      0.00000000	      0.00000000	      0.00000000	      0.00000000	      0.00000000	      0.00000000	      0.00000000
    147.50000000	     -0.06510972	   1172.67497433	    -63.81623049	      0.85630254	      0.00000000	     -0.55761256	      0.00003738	      3.76982098	      0.00003106	      0.00000000	      0.00000000	      0.00000000	      0.00000000	      0.00000000	      0.00000000	      0.00000000	      0.00000000	      0.00000000
    147.50100000	      0.92308980	   1163.26124414	    -66.70199215	      0.85628859	      0.00000000	     -0.55491745	      0.00003478	      2.88011245	      0.00003074	      0.00000000	      0.00000000	      0.00000000	      0.00000000	      0.00000000	      0.00000000	      0.00000000	      0.00000000	      0.00000000
    147.50200000	      1.78992388	   1154.00979162	    -71.04081751	      0.85628143	      0.00000000	     -0.55240661	      0.00003233	      2.02022840	      0.00003112	      0.00000000	      0.00000000	      0.00000000	      0.00000000	      0.00000000	      0.00000000	      0.00000000	      0.00000000	      0.00000000
    147.50300000	      2.39173455	   1144.91335040	    -76.69436608	      0.85627658	      0.00000000	     -0.55009678	      0.00003023	      1.21684935	      0.00003221	      0.00000000	      0.00000000	      0.00000000	      0.00000000	      0.00000000	      0.00000000	      0.00000000	      0.00000000	      0.00000000
    147.50400000	      2.59661925	   1135.93524900	    -83.37183312	      0.85626811	      0.00000000	     -0.54798828	      0.00002860	      0.46848583	      0.00003393	      0.00000000	      0.00000000	      0.00000000	      0.00000000	      0.00000000	      0.00000000	      0.00000000	      0.00000000	      0.00000000
    147.50500000	      2.30203681	   1127.01276660	    -90.65874280	      0.85624942	      0.00000000	     -0.54606605	      0.00002750	     -0.25082457	      0.00003615	      0.00000000	      0.00000000	      0.00000000	      0.00000000	      0.00000000	      0.00000000	      0.00000000	      0.00000000	      0.00000000
    147.50600000	      1.44958072	   1118.06301357	    -98.05887081	      0.85621421	      0.00000000	     -0.54430165	      0.00002693	     -0.98348654	      0.00003869	      0.00000000	      0.00000000	      0.00000000	      0.00000000	      0.00000000	      0.00000000	      0.00000000	      0.00000000	      0.00000000
    147.50700000	      0.03497215	   1108.99032924	   -105.04485690	      0.85615737	      0.00000000	     -0.54265582	      0.00002680	     -1.77719481	      0.00004136	      0.00000000	      0.00000000	      0.00000000	      0.00000000	      0.00000000	      0.00000000	      0.00000000	      0.00000000	      0.00000000
    147.50800000	     -1.88803647	   1099.69417264	   -111.11235170	      0.85607593	      0.00000000	     -0.54108066	      0.00002698	     -2.67239409	      0.00004394	      0.00000000	      0.00000000	      0.00000000	      0.00000000	      0.00000000	      0.00000000	      0.00000000	      0.00000000	      0.00000000
    147.50900000	     -4.21034929	   1090.07687409	   -115.83238077	      0.85596967	      0.00000000	     -0.53952190	      0.00002730	     -3.69032902	      0.00004625	      0.00000000	      0.00000000	      0.00000000	      0.00000000	      0.00000000	      0.00000000	      0.00000000	      0.00000000	      0.00000000
    147.51000000	     -6.77646587	   1080.05101841	   -118.89690346	      0.85584147	      0.00000000	     -0.53792123	      0.00002759	     -4.82359995	      0.00004810	      0.00000000	      0.00000000	      0.00000000	      0.00000000	      0.00000000	      0.00000000	      0.00000000	      0.00000000	      0.00000000
    147.51100000	     -9.39860808	   1069.54637037	   -120.15316048	      0.85569733	      0.00000000	     -0.53621955	      0.00002769	     -6.03081161	      0.00004937	      0.00000000	      0.00000000	      0.00000000	      0.00000000	      0.00000000	      0.00000000	      0.00000000	      0.00000000	      0.00000000
    147.51200000	    -11.87443976	   1058.51613187	   -119.62330670	      0.85554599	      0.00000000	     -0.53436107	      0.00002747	     -7.23635878	      0.00004998	      0.00000000	      0.00000000	      0.00000000	      0.00000000	      0.00000000	      0.00000000	      0.00000000	      0.00000000	      0.00000000
    147.51300000	    -14.00638603	   1046.94208659	   -117.50704918	      0.85539819	      0.00000000	     -0.53229818	      0.00002686	     -8.33569924	      0.00004989	      0.00000000	      0.00000000	      0.00000000	      0.00000000	      0.00000000	      0.00000000	      0.00000000	      0.00000000	      0.00000000
    147.51400000	    -15.62030336	   1034.83798885	   -114.16652025	      0.85526563	      0.00000000	     -0.52999668	      0.00002582	     -9.20570604	      0.00004914	      0.00000000	      0.00000000	      0.00000000	      0.00000000	      0.00000000	      0.00000000	      0.00000000	      0.00000000	      0.00000000
    147.51500000	    -16.58127938	   1022.25050842	   -110.09425356	      0.85515985	      0.00000000	     -0.52744097	      0.00002440	     -9.71895072	      0.00004781	      0.00000000	      0.00000000	      0.00000000	      0.00000000	      0.00000000	      0.00000000	      0.00000000	      0.00000000	      0.00000000
    147.51600000	    -16.80477717	   1009.25724748	   -105.86673330	      0.85509119	      0.00000000	     -0.52463830	      0.00002266	     -9.76015550	      0.00004604	      0.00000000	      0.00000000	      0.00000000	      0.00000000	      0.00000000	      0.00000000	      0.00000000	      0.00000000	      0.00000000
    147.51700000	    -16.26211759	    995.96168899	   -102.08748561	      0.85506798	      0.00000000	     -0.52162133	      0.00002072	     -9.24269165	      0.00004397	      0.00000000	      0.00000000	      0.00000000	      0.00000000	      0.00000000	      0.00000000	      0.00000000	      0.00000000	      0.00000000
    147.51800000	    -14.98018064	    982.48521529	    -99.32503898	      0.85509604	      0.00000000	     -0.51844762	      0.00001873	     -8.12296331	      0.00004180	      0.00000000	      0.00000000	      0.00000000	      0.00000000	      0.00000000	      0.00000000	      0.00000000	      0.00000000	      0.00000000
    147.51900000	    -13.03595707	    968.95652325	    -98.05211089	      0.85517835	      0.00000000	     -0.51519563	      0.00001684	     -6.41074489	      0.00003972	      0.00000000	      0.00000000	      0.00000000	      0.00000000	      0.00000000	      0.00000000	      0.00000000	      0.00000000	      0.00000000
